<svg width="513" height="139" viewBox="0 0 513 139" fill="none" xmlns="http://www.w3.org/2000/svg">
<circle cx="28" cy="39" r="18" fill="#293F6E"/>
<circle cx="94.5" cy="39.5" r="29.5" fill="#051A1F"/>
<circle cx="94" cy="101" r="21" fill="#008BCC"/>
<circle cx="28" cy="101" r="28" fill="#BF3F4A"/>
<path d="M215.968 81.8188C215.31 90.922 211.94 98.0884 205.858 103.318C199.815 108.547 191.835 111.162 181.918 111.162C171.072 111.162 162.531 107.521 156.294 100.238C150.096 92.917 146.997 82.8841 146.997 70.1396V64.9683C146.997 56.8335 148.43 49.6672 151.297 43.4692C154.163 37.2713 158.25 32.526 163.557 29.2334C168.903 25.902 175.101 24.2363 182.151 24.2363C191.913 24.2363 199.776 26.8511 205.742 32.0806C211.707 37.3101 215.155 44.6507 216.084 54.1025H198.653C198.227 48.6406 196.697 44.6895 194.062 42.249C191.467 39.7699 187.497 38.5303 182.151 38.5303C176.34 38.5303 171.982 40.6221 169.077 44.8057C166.211 48.9505 164.739 55.4002 164.661 64.1548V70.5464C164.661 79.6883 166.036 86.3704 168.787 90.5928C171.576 94.8151 175.953 96.9263 181.918 96.9263C187.303 96.9263 191.312 95.7061 193.946 93.2656C196.619 90.7865 198.149 86.9709 198.537 81.8188H215.968ZM223.696 77.9839C223.696 71.7472 224.897 66.1885 227.299 61.3076C229.701 56.4268 233.148 52.6499 237.642 49.9771C242.174 47.3042 247.423 45.9678 253.388 45.9678C261.872 45.9678 268.786 48.5632 274.132 53.7539C279.516 58.9447 282.518 65.9948 283.138 74.9043L283.254 79.2041C283.254 88.8496 280.562 96.597 275.178 102.446C269.793 108.257 262.569 111.162 253.504 111.162C244.44 111.162 237.196 108.257 231.773 102.446C226.389 96.6357 223.696 88.7334 223.696 78.7393V77.9839ZM240.489 79.2041C240.489 85.1696 241.612 89.7406 243.859 92.917C246.106 96.0547 249.321 97.6235 253.504 97.6235C257.572 97.6235 260.748 96.0741 263.034 92.9751C265.319 89.8374 266.462 84.8403 266.462 77.9839C266.462 72.1346 265.319 67.6024 263.034 64.3872C260.748 61.172 257.533 59.5645 253.388 59.5645C249.282 59.5645 246.106 61.172 243.859 64.3872C241.612 67.5636 240.489 72.5026 240.489 79.2041ZM316.2 89.4888L327.879 47.1299H345.427L324.219 110H308.182L286.973 47.1299H304.521L316.2 89.4888ZM370.587 110H353.736V47.1299H370.587V110ZM352.749 30.8604C352.749 28.3424 353.581 26.27 355.247 24.6431C356.951 23.0161 359.256 22.2026 362.162 22.2026C365.028 22.2026 367.314 23.0161 369.018 24.6431C370.722 26.27 371.575 28.3424 371.575 30.8604C371.575 33.417 370.703 35.5088 368.96 37.1357C367.256 38.7627 364.989 39.5762 362.162 39.5762C359.334 39.5762 357.048 38.7627 355.305 37.1357C353.601 35.5088 352.749 33.417 352.749 30.8604ZM381.859 78.1001C381.859 68.2996 384.048 60.4941 388.425 54.6836C392.841 48.873 398.865 45.9678 406.496 45.9678C412.617 45.9678 417.672 48.2533 421.662 52.8242V20.75H438.512V110H423.347L422.533 103.318C418.35 108.547 412.965 111.162 406.38 111.162C398.981 111.162 393.035 108.257 388.542 102.446C384.087 96.597 381.859 88.4816 381.859 78.1001ZM398.652 79.3203C398.652 85.2083 399.678 89.7212 401.731 92.8589C403.785 95.9966 406.767 97.5654 410.68 97.5654C415.87 97.5654 419.531 95.3768 421.662 90.9995V66.1885C419.57 61.8112 415.948 59.6226 410.796 59.6226C402.7 59.6226 398.652 66.1885 398.652 79.3203ZM448.913 77.9839C448.913 71.7472 450.114 66.1885 452.516 61.3076C454.917 56.4268 458.365 52.6499 462.858 49.9771C467.391 47.3042 472.639 45.9678 478.605 45.9678C487.088 45.9678 494.003 48.5632 499.349 53.7539C504.733 58.9447 507.735 65.9948 508.355 74.9043L508.471 79.2041C508.471 88.8496 505.779 96.597 500.395 102.446C495.01 108.257 487.786 111.162 478.721 111.162C469.657 111.162 462.413 108.257 456.99 102.446C451.605 96.6357 448.913 88.7334 448.913 78.7393V77.9839ZM465.706 79.2041C465.706 85.1696 466.829 89.7406 469.076 92.917C471.322 96.0547 474.538 97.6235 478.721 97.6235C482.789 97.6235 485.965 96.0741 488.25 92.9751C490.536 89.8374 491.679 84.8403 491.679 77.9839C491.679 72.1346 490.536 67.6024 488.25 64.3872C485.965 61.172 482.75 59.5645 478.605 59.5645C474.499 59.5645 471.322 61.172 469.076 64.3872C466.829 67.5636 465.706 72.5026 465.706 79.2041Z" fill="black"/>
</svg>
